<svg width="270" height="140" fill="none" xmlns="http://www.w3.org/2000/svg"><g clip-path="url(#clip0_138_255)" fill="#464646"><path d="M141.286 32.754c-.512.078-1.003 1.938-1.992 2.906-.723.7-1.626.656-2.105 1.52-.182.323-.124.874-.33 1.403-.403 1.059-1.825 1.153-1.825 2.307-.005 1.245 1.185 1.483 2.216 2.367.804.71.883 1.201 1.857 1.546.831.28 2.068-.634 3.183-.306.915.27 1.79.464 1.997 1.391.182.855-.013 2.18-1.122 2.027-.374-.041-1.995-.58-3.987-.371-2.403.27-5.145 1.044-5.413 3.688-.148 1.478 1.704 3.221 3.492 2.867 1.237-.24.652-1.68 1.326-2.38.883-.895 5.886 3.127 10.537 3.127 1.958 0 3.414-.488 4.86-1.983.135-.114.3-.36.509-.374.197.015.541.206.654.289 3.746 2.971 6.577 8.931 20.343 9.002 1.936.01 4.142.922 5.942 2.544 1.606 1.466 2.546 3.746 3.458 6.06 1.378 3.471 3.847 6.848 7.591 10.606.204.202 3.286 2.566 3.531 2.743.04.025.266.559.188.857-.092 2.253-.424 8.805 4.525 9.102 1.21.06.893-.78.893-1.357-.003-1.141-.214-2.275.396-3.443.833-1.607-1.769-2.347-1.692-5.821.054-2.59-2.15-2.149-3.269-4.123-.645-1.143-1.218-1.75-1.176-3.148.251-7.87-1.697-13.042-2.668-14.311-.758-.96-1.385-1.34-.692-1.785 4.13-2.692 5.067-5.198 5.067-5.198 2.196-5.095 4.172-9.75 6.894-11.798.549-.423 1.956-1.46 2.819-1.867 2.541-1.182 3.879-1.898 4.617-2.607 1.168-1.124 2.09-3.467.971-4.887-1.392-1.753-3.8-.362-4.862.26-7.593 4.447-8.712 12.293-11.342 16.8-2.098 3.6-5.509 6.243-8.559 6.46-2.287.167-4.751-.29-7.206-1.353-5.969-2.583-9.236-5.919-10.006-6.509-1.603-1.22-14.054-13.284-24.14-13.777 0 0-1.252-2.474-1.567-2.515-.738-.092-1.493 1.478-2.034 1.66-.509.168-1.365-1.701-1.879-1.619zm-44.404 71.998c-.95-.022-1.757-.791-1.757-1.743l.003-31.055h-10.37v34.233c0 1.678 1.378 3.047 3.067 3.047h18.125a3.05 3.05 0 003.062-3.047V71.954h-10.36l-.01 31.055c0 .952-.806 1.721-1.76 1.743zM131.6 71.954h-15.694c-1.857 0-3.369 1.49-3.369 3.343v33.937h10.379v-31.13c.007-.954.789-1.71 1.753-1.71.969 0 1.747.739 1.769 1.683v31.157h10.337V78.077c.012-.945.79-1.683 1.756-1.683.959 0 1.751.755 1.759 1.71v31.13h10.379V75.297c0-1.852-1.515-3.343-3.372-3.343H131.6zM70.882 78.17c.007-1.037-.849-1.775-1.757-1.775h-1.76V95.25h1.76c.916 0 1.764-.718 1.757-1.75V78.17zm6.958 21.696H67.365v9.369H57v-37.28h20.906c1.872 0 3.333 1.5 3.333 3.358v21.196c0 1.86-1.518 3.357-3.4 3.357zm108.397 1.032c-2.083 0-3.832 1.777-3.832 3.931 0 2.16 1.749 3.923 3.898 3.923 2.133 0 3.859-1.763 3.859-3.923 0-2.159-1.726-3.931-3.859-3.931h-.066zm4.668 3.918a4.596 4.596 0 01-4.602 4.591c-2.573 0-4.639-2.044-4.639-4.591 0-2.498 2.066-4.586 4.563-4.586 2.622 0 4.678 2.025 4.678 4.586z"/><path d="M185.823 104.524c.721 0 1.1-.253 1.1-.757 0-.45-.367-.68-1.068-.68h-.206v1.437h.174zm2.654 2.947h-1.237l-1.591-2.09v2.09h-1.011v-5.285h1.063c1.443 0 2.211.539 2.211 1.568 0 .687-.453 1.297-1.085 1.479l-.074.027 1.724 2.211zm-20.406-12.214V78.091c-.025-.949-.8-1.677-1.766-1.677-.957 0-1.749.757-1.756 1.704v17.14h3.522zm0 13.977v-9.359h-3.522v9.359h-10.36V75.297c0-1.852 1.512-3.343 3.369-3.343h17.502c1.862 0 3.375 1.49 3.375 3.343v33.937h-10.364z"/></g><defs><clipPath id="clip0_138_255"><path fill="#fff" transform="translate(57 29)" d="M0 0h157v83H0z"/></clipPath></defs></svg>