<svg width="270" height="140" fill="none" xmlns="http://www.w3.org/2000/svg"><path fill-rule="evenodd" clip-rule="evenodd" d="M120.139 67.009l-20.58.734L119.1 68.83l1.039-1.822zm-2.462 4.331l-20.629.735 19.614 1.092 1.015-1.827zm-2.461 4.368l-20.603.725 19.589 1.09 1.014-1.814zm-2.411 4.347l-20.63.736 19.568 1.088 1.062-1.824zm25.217-34.91l-26.267.935 26.342 1.467-.075-2.403zm-.166-4.3l-23.597.829 23.671 1.36-.074-2.189zm-.169-4.147l-21.024.693 21.126 1.175-.102-1.868zm-.141-4.257l-18.429.618 18.501 1.094-.072-1.712zm-.12-3.441h-16.028l16.052.853-.024-.853zm-27.107 55.399l-20.58.746h20.16l.42-.746z" fill="#464646"/><path fill-rule="evenodd" clip-rule="evenodd" d="M180.062 29.139h-29.658l-.841 1.491 14.841.789c.174 0 .174.247-.075.247l-15.631.523-1.508 2.644 14.74.872c.198.025.149.297-.024.297l-15.658.515-1.457 2.531 14.716.819c.322.025.322.298 0 .298l-15.631.549-1.484 2.647 14.667.842c.321.025.297.322 0 .322l-15.632.558-1.51 2.614 14.692.818c.222.025.248.298-.049.298l-45.042 1.511 42.742 2.379c.27 0 .247.346-.051.346l-45.115 1.611 42.742 2.378c.198 0 .247.322-.05.322l-45.19 1.635 42.742 2.379c.174.025.346.347-.024.371l-45.117 1.609 42.741 2.377c.123.025.246.347-.049.347l-22.707.81.074 2.054 20.233 1.126c.148.025.222.322-.051.322l-20.107.716.099 2.296 17.562.977c.172.025.247.372-.051.372l-17.413.612.076 2.52 14.965.833c.172.024.222.346-.075.346l-14.816.53.099 2.771 12.367.688c.174.025.174.323-.074.323l-12.243.444.049 1.191h39.923c10.585 0 20.082-7.73 21.864-13.875 1.782-6.144 1.782-11.693-6.727-14.468 4.75-1.09 13.01-6.456 14.643-13.874 1.481-6.74-.991-13.628-12.517-13.653zm-20.081 43.03h-12.268l6.925-12.29h9.103c9.399 0 4.847 12.29-3.76 12.29zm15.878-26.363c-.396 1.486-3.366 5.252-7.123 5.252h-9.102l5.836-10.306h4.651c5.935.198 6.133 3.568 5.738 5.053zM225 102.816c0-4.762-3.952-8.75-8.707-8.75-4.877 0-8.859 4.051-8.859 9.029a8.882 8.882 0 002.593 6.308 8.843 8.843 0 006.298 2.597c3.61 0 7.037-2.474 8.056-5.844h-4.507c-.896 1.422-2.067 2.071-3.674 2.071-2.037 0-3.857-1.392-4.445-3.371h13.027c.156-.957.218-1.422.218-2.04zm-13.367-1.192c.586-2.32 2.439-3.804 4.723-3.804 2.285 0 4.075 1.454 4.63 3.804h-9.353zm-45.155-6.733v1.388c-1.295-1.391-3.172-2.183-5.18-2.183-4.445 0-8.235 3.803-8.235 8.751 0 4.668 3.353 8.855 8.323 8.855 2.192 0 3.859-.507 5.433-2.3v2.195h3.768V94.891h-4.109zm-4.601 13.27a5.17 5.17 0 01-3.66-1.519 5.19 5.19 0 010-7.333 5.172 5.172 0 017.321 0 5.194 5.194 0 010 7.333 5.172 5.172 0 01-3.661 1.519zM54.212 94.065c-1.697 0-2.994.587-4.415 2.04v-1.638H46v17.13h4.106v-8.071c0-2.194.185-5.69 3.21-5.69 2.84 0 3.15 3.278 3.15 5.381v8.379h4.105v-9.183c0-2.412-.185-3.556-.834-4.917-.956-2.04-3.21-3.431-5.525-3.431zm25.511 8.751c0-4.762-3.951-8.75-8.705-8.75-4.878 0-8.86 4.051-8.86 9.029a8.876 8.876 0 005.482 8.237 8.834 8.834 0 003.408.668c3.612 0 7.038-2.474 8.057-5.844H74.6c-.896 1.422-2.069 2.071-3.674 2.071-2.037 0-3.859-1.392-4.445-3.371h13.026c.156-.957.217-1.422.217-2.04zm-13.366-1.192c.587-2.32 2.439-3.804 4.724-3.804 2.284 0 4.075 1.454 4.63 3.804h-9.354zm80.919 9.959h4.105v-22.85h-4.105v22.85zm34.142-17.518c-1.698 0-2.995.587-4.415 2.04v-1.638h-3.798v17.13h4.108v-8.071c0-2.194.184-5.69 3.21-5.69 2.838 0 3.148 3.278 3.148 5.381v8.379h4.106v-9.183c0-2.412-.185-3.556-.833-4.917-.957-2.04-3.21-3.431-5.526-3.431zm16.608 3.773c1.882 0 2.962.619 3.982 2.349h4.629c-1.265-3.679-4.506-6.122-8.458-6.122-5.001 0-9.015 3.988-9.015 8.905 0 4.947 4.044 9.029 9.015 9.029a9.16 9.16 0 006.729-3c.865-.958 1.174-1.515 1.729-3.029h-4.629c-.959 1.484-2.192 2.256-3.735 2.256-2.873 0-5.001-2.226-5.001-5.195 0-2.998 2.037-5.194 4.754-5.194zm-102.61 7.081L92.51 94.468h-3.304l-2.94 10.451-3.475-10.451h-3.623l5.71 17.129h2.63l3.335-11.099 3.24 11.099h2.76l5.476-17.129h-3.394l-3.508 10.451zm21.997-10.836c-2.006 0-3.883.791-5.18 2.182v-7.532h-4.106v22.85h3.766v-2.195c1.575 1.793 3.241 2.299 5.433 2.299 4.971 0 8.323-4.186 8.323-8.855.001-4.947-3.79-8.75-8.236-8.75zm-.579 14.078a5.17 5.17 0 01-3.66-1.519 5.19 5.19 0 010-7.333 5.172 5.172 0 017.321 0 5.19 5.19 0 010 7.333 5.172 5.172 0 01-3.661 1.519zm23.592-13.27v1.388c-1.296-1.391-3.172-2.183-5.18-2.183-4.445 0-8.236 3.803-8.236 8.751 0 4.668 3.353 8.855 8.323 8.855 2.192 0 3.858-.507 5.433-2.3v2.195h3.766V94.891h-4.106zm-4.6 13.27a5.17 5.17 0 01-3.66-1.519 5.19 5.19 0 010-7.333 5.172 5.172 0 017.321 0 5.194 5.194 0 010 7.333 5.172 5.172 0 01-3.661 1.519z" fill="#464646"/></svg>