<svg width="270" height="140" fill="none" xmlns="http://www.w3.org/2000/svg"><path fill-rule="evenodd" clip-rule="evenodd" d="M160.527 34.44V30h-17.833v24.38h17.833v-4.022h-12.871V43.74h11.272v-4.357h-11.272V34.44h12.871zm-4.962 22.453v9.383h-9.759v-9.383h-5.044v24.296h5.044V70.297h9.759V81.19h4.962V56.893h-4.962zm4.962 31.164v-4.354h-17.833v24.712h17.833v-4.438h-12.871v-6.536h11.272v-4.02h-11.272v-5.364h12.871zM139.836 30h-4.963v9.383h-9.756V30h-4.962v24.38h4.962V43.487h9.756V54.38h4.963V30zm-41.045 0v4.44h7.57v19.94h4.962V34.44h7.57V30H98.791zM83.147 56.222c-7.822 0-11.943 4.44-11.943 12.818 0 8.797 4.122 13.153 11.943 13.153 7.822 0 11.86-4.356 11.86-13.153 0-8.377-4.038-12.818-11.86-12.818zm-6.56 12.818c0-5.613 2.187-8.377 6.56-8.377 4.71 0 6.897 2.764 6.897 8.377 0 5.95-2.187 8.797-6.897 8.797-4.373 0-6.56-2.847-6.56-8.797zM64.055 56.893v17.174L54.3 56.893H49v24.296h4.71V64.098l10.009 17.091h5.298V56.893h-4.962zm23.13 36.862v-5.698h12.531v-4.354H82.222v24.712h4.963V98.111h11.018v-4.356H87.185zm51.727-32.506v-4.356h-20.019v4.356h7.485v19.94h5.047V61.25h7.487zM107.875 71.89c1.598 0 2.86.25 3.448.92l.925 8.38h5.636v-.587c-.589-.336-.926-1.843-.926-4.693 0-3.434-1.261-5.278-3.111-6.2 2.523-1.005 3.784-2.848 3.784-5.948 0-4.356-2.523-6.87-7.822-6.87h-12.28V81.19h5.047v-9.3h5.299zm-5.299-4.106v-6.535h6.224c2.523 0 3.785.922 3.785 3.1s-1.262 3.435-4.037 3.435h-5.972zm8.747 15.919h-5.971l-8.747 24.712h5.298l1.935-5.361h9.083l1.514 5.361h5.383l-8.495-24.712zm-3.112 5.61l3.112 9.721h-6.224l3.112-9.72zm27.589 2.514h4.962c-.254-2.177-.926-4.02-2.442-5.613-2.185-1.843-4.708-3.1-8.157-3.1-3.448 0-5.971 1.257-8.158 3.436-1.85 2.177-3.112 5.277-3.112 9.383 0 8.713 3.701 13.067 10.934 13.067 6.308 0 9.755-3.1 10.935-9.047H135.8c-.673 2.847-2.861 4.357-5.637 4.357-4.121 0-5.971-2.764-5.971-8.127 0-5.863 1.85-8.713 5.971-8.713 2.776 0 4.375 1.593 5.637 4.357zM73.475 108.08c.841 0 1.514-.337 2.02-.754.42-.503.756-1.173.756-2.094 0-1.006-.337-1.676-.756-2.095-.505-.418-1.178-.67-2.02-.67h-.084c-1.01 0-1.682.252-2.103.67-.419.418-.672 1.089-.672 2.095v.082c0 .839.252 1.509.672 2.012.42.417 1.095.754 2.103.754h.084zm-.084.67c-1.178 0-2.019-.418-2.607-1.007-.589-.586-.841-1.423-.841-2.429v-.082c0-1.175.252-2.011.84-2.597.59-.586 1.43-.839 2.608-.839h.084c1.01 0 1.85.253 2.44.839.588.587 1.008 1.423 1.008 2.597 0 1.09-.42 1.925-1.009 2.511a3.412 3.412 0 01-2.439 1.007h-.084zm.337-3.854h.084c.336 0 .504-.168.504-.586v-.084s-.084 0-.084-.084c-.084-.084-.252-.084-.504-.084h-.926v.839l.925-.001zm.588.587l.673.839c.084.166 0 .334-.084.417-.168.169-.42.084-.505 0l-.84-1.173h-.758v.921a.36.36 0 01-.336.336c-.168 0-.337-.169-.337-.336v-2.764c0-.168.169-.334.337-.334h1.346c.336 0 .672.082.84.251.085.083.169.083.169.168.168.169.168.334.168.503 0 .669-.168 1.003-.673 1.172zM163.974 30c15.645 0 29.185 5.697 40.119 16.588C215.364 57.814 221 71.218 221 86.884v21.531h-22.877V86.214c0-8.71-3.112-16.252-9.42-22.452-1.515-1.591-3.112-2.848-4.962-4.105-5.047-3.435-11.018-4.943-17.242-4.943h-2.524V30h-.001zm31.96 78.415h-17.831V91.24c0-2.847-.924-5.026-2.858-6.87-1.851-1.924-4.374-2.847-6.897-2.847h-4.374v-24.63h2.523c6.56 0 12.195 1.843 17.242 5.613 1.262.586 2.524 1.843 3.448 2.764 5.972 5.95 8.747 12.82 8.747 20.945v22.2zm-20.017 0h-11.944V83.703h4.375c1.934 0 3.785.668 5.382 2.177 1.261 1.256 2.187 3.183 2.187 5.36v17.175z" fill="#464646"/></svg>