<svg width="270" height="140" fill="none" xmlns="http://www.w3.org/2000/svg"><path fill-rule="evenodd" clip-rule="evenodd" d="M81.819 79.971c-1.272 0-2.269.904-2.269 2.224 0 1.32 1.002 2.218 2.269 2.218 1.266 0 2.268-.905 2.268-2.218 0-1.32-.997-2.224-2.268-2.224zm0 3.807c-.907 0-1.58-.673-1.58-1.584 0-.909.668-1.587 1.58-1.587.901 0 1.58.689 1.58 1.588 0 .893-.685 1.583-1.58 1.583zm22.073-11.582H92.849l1.255-19.494-7.171 19.494H76.678l16.27-44.061h10.912l-1.259 19.76 7.307-19.76h10.255l-16.271 44.06zm1.332 0l16.269-44.061h10.255l-16.27 44.06h-10.254z" fill="#464646"/><path fill-rule="evenodd" clip-rule="evenodd" d="M75.496 57.009c-14.33 17.09-27.847 39.83-15.907 50.303 11.57 10.148 26.03 4.139 35.89.134 9.861-4.006 118.846-52.073 118.846-52.073 1.052-.534.855-1.202-.46-.869-.53.135-118.648 32.646-118.648 32.646-14.989 4.273-32.079-5.04-19.721-30.141z" fill="#464646"/><path fill-rule="evenodd" clip-rule="evenodd" d="M82.205 82.35c.319-.015.567-.181.567-.629 0-.576-.37-.721-.99-.721h-.892v2.39h.595v-1.017h.1l.54 1.017h.684l-.604-1.04zm-.381-.386h-.339v-.555h.286c.175 0 .376.02.376.252 0 .249-.116.302-.323.302zM184.9 28c-1.272 0-2.268.905-2.268 2.223 0 1.32 1.002 2.218 2.268 2.218 1.267 0 2.269-.905 2.269-2.218.001-1.318-.996-2.223-2.269-2.223zm0 3.807c-.907 0-1.58-.673-1.58-1.583 0-.91.668-1.587 1.58-1.587.901 0 1.58.688 1.58 1.587 0 .893-.684 1.583-1.58 1.583z" fill="#464646"/><path fill-rule="evenodd" clip-rule="evenodd" d="M185.288 30.38c.318-.016.567-.183.567-.63 0-.577-.372-.722-.991-.722h-.891v2.39h.594v-1.017h.101l.54 1.017h.684l-.604-1.039zm-.383-.388h-.338v-.555h.286c.175 0 .376.022.376.254 0 .247-.117.301-.324.301zm-6.761 5.487l2.756-7.344h-31.29l-10.743 13.218 4.96-13.218h-10.386l-16.14 44.06h10.255l6.89-18.425.472 18.426 31.465-.07 2.995-8.475h-11.963l3.931-10.681h9.859l3.034-8.212h-9.86l3.38-9.28h10.385zm-33.052 33.78l-.658-22.965 15.504-17.29-14.846 40.254z" fill="#464646"/></svg>