<svg width="270" height="140" fill="none" xmlns="http://www.w3.org/2000/svg"><g clip-path="url(#clip0_138_263)"><path d="M136.51 21.68a3.092 3.092 0 011.667-3.353 3.111 3.111 0 013.423.435 3.092 3.092 0 01.909 3.323 3.1 3.1 0 01-2.728 2.11 2.772 2.772 0 01-.321 0 .338.338 0 00-.17.08c-.176.277.447.222.023 1.419a.945.945 0 01-.05.263c-.033.46-.21 1.822-.235 2.548.09.105.115.155.106.417-.055.58-.14 1.157-.253 1.73a.908.908 0 01-.45.665c-.215.96-.272 1.756-.825 2.923-.05.885-.113 1.126-.298 1.558-.021 1.303.069 1.496-.812 3.56-.227.964-.011 1.63.229 2.634.245 1.03.926 1.46 1.028 2.516.238 2.485.178 4.176-.356 6.125l.466 1.103c.579.264 2.014.988 1.218 2.135 1.115.589 2.814 1.212 4.21 2.405a15.266 15.266 0 011.688 1.575c1.014.157.905.238 1.657.696 2.21 1.352 5.754 4.037 7.811 5.934.354.206.498.355.784.504.045.087.057.106.047.128-.099.248-.095.255-.182.453.14.122.287.237.44.344.116.036.116-.02.314-.069.258.241.578.435.698.418.35-.089.29-.017.585-.347.106-.108.279 0 .279 0 .19-.226.415-.42.667-.576.254-.149.738-.165.738-.165.162 0 .131.166.117.22-.183.096-.572.198-.789.359a6.488 6.488 0 00-.847 1.15c.955-.13 1.543.107 2.339.016.434-.025.755 0 1.211-.327.263-.184.544-.343.837-.476.382-.166.743-.078 1.079.166.237.267.38.268.02.644-.13.146-.32.31-.558.547-.501.51-1.031.99-1.586 1.44a9.62 9.62 0 01-1.692 1.072c-1.064.762-.813.556-1.649 1.32-.106.094-.386.262-.521.351-.331.216-.433.037-.649-.36a5.458 5.458 0 01-.261-.464c-.177-.345-.311-.739-.256-.732-.198-.025-1.091-1.07-1.092-1.293-.189-.043-.994-.822-1.023-.975l-.713-.57c-.816.168-1.002-.337-3.157-1.863-.246 0-.625-.14-1.169-.54-.977-.777-3.305-2.535-3.699-2.736-.419-.215-.932-.417-1.243-.675a13.85 13.85 0 01-.954-.199 5.863 5.863 0 00-1.059-.23c-.976-.12-2-.527-2.969-1.011-.459-.218-.859-.33-1.256-.498-.887-.373-1.645-.71-2.231-.846a7.344 7.344 0 01-1.854-.668 2.455 2.455 0 00-.434-.224.958.958 0 00-.615.093c-.718.374-1.395.696-2.013 1.03-.578.31-1.115.63-1.673.954-.509.294-1.098.57-1.702.859 0 0-1.724.863-2.665 1.197a31.132 31.132 0 01-3.507 2.387c-.505.24-1.485.86-1.937.998-.258.208-1.178.862-1.897 1.402-.558.418-.977.766-.977.766-.323.29-.301.426-.915.166-.17.139-.302.226-.418.307-.444.322-.481.244-.643.235-.31.268-.349.13-.619.436-.177.279 0 .209-.371.343-.08.03-.118.125-.177.178-.302.248-.303.946-1.024.996-.419.298-.311.656-.631.64.02.31-.558.76-.669.758-.919.318-.984-.358-2.092.14-.14.065-.353.244-.628.297-.485.092-1.073 0-1.43-.278-.558-.433-1.082-1.27-1.082-1.27-.179-.417-.075-.696.484-1.088.233-.148.279-.26.667-.279.193-.073.139.04.488-.086.201-.072.201-.02.607-.056.126-.062.259-.108.397-.139.321-.106.633-.223.633-.223s.083-.082.389-.053c.261-.107.529-.264.666-.313-.035-.417.01-.392.201-.557.238-.204.279-.17.458-.044.076-.043.112-.059.104-.121-.03-.215-.214-.316-.158-.79-.082-.189-.202-.417-.176-.565.027-.147.077-.225.169-.278.092-.053.131.018.183.078.079.134.137.28.17.433.033.366.146.835.509.572.214-.216.255-.792.697-.668l.312.27a1.96 1.96 0 01.433-.347s-.247-.25-.03-.443a4.64 4.64 0 00.644-.577 17.73 17.73 0 012.264-2.162 21.395 21.395 0 015.385-3.167c.444-.557.876-.936 1.861-1.03 1.17-1.973 3.411-3.735 3.928-4.016.418-.758.601-.677 1.147-.836.434-.346.533-.346.727-.71.188-.749-.435-2.749 1.158-2.85a7.55 7.55 0 01.632-.815 6.836 6.836 0 01-.43-1.608c-.012-.053-.632-.488-.456-1.058a8.53 8.53 0 01-.909-1.385 1.354 1.354 0 01-.207-.036c-.081-.013-.18-.009-.293-.018-.248.639-.519.686-.959.828-.788 1.67-1.066 2.385-3.295 3.771a5.587 5.587 0 00-1.163 2.074c-.152.328-.099.784-.018 1.03-.117.363-.087.397-.087.397a.568.568 0 00.331.357c.268.07.535.06.52.357-.036.373-.526.312-.757.27-.893-.139-.61-.72-1.18-.527-.437.278-.601 1.128-1.314 1.018-.095-.063-.066-.247 0-.38.1-.207.279-.38.171-.456-.463.14-1.394.453-1.394.453-.437.12-.915-.1-.486-.386.293-.101.574-.235.837-.4 0 0 .181-.246-.166-.123a3.405 3.405 0 01-1.343.175s-.837-.108-.94-.174c-.103-.065-.207-.323.054-.322a8.59 8.59 0 001.798-.264c.31-.12.897-.468 1.227-.63 0 0 .359-.521.558-.624.33-.379.607-.602.897-.987.279-.586.579-1.513 1.521-2.949a13.594 13.594 0 011.654-2.111 3.524 3.524 0 011.063-1.888 14.4 14.4 0 01.785-1.502c.114-.192.222-.36.33-.543.279-.43.558-1.232 1.635-1.359.232-.169.444-.362.633-.577.279-.234.212-.599.436-.855-.342-.333-1.214-.956-1.299-1.825a2.708 2.708 0 01.796-2.239c.62-.618 1.271-.925 2.063-.88.989.147 1.176.474 1.491.798.316.325.419.11.543.47.83.22.784.123.777.732.127.17.342.33.339.686.279-.578.335-.684 1.079-1.32.176-.516.296-1.024.451-1.54.139-.478.325-.975.466-1.34-.148-1.044.156-1.217.558-2.131-.073-.126-.057-.162-.027-.37.158-.605.405-1.404.558-1.926a.303.303 0 01.096-.153.302.302 0 01.168-.07c.185-.66.464-1.89.512-2.14.191-.697.068-.912-.08-1.302-.047-.127-.025-.31-.107-.45a16.033 16.033 0 01-.65-1.3c-.11-.238-.279-1.136-.279-1.136-.148-.458-.018 0-.018 0" fill="#464646"/></g><path fill-rule="evenodd" clip-rule="evenodd" d="M195.489 109.402v.786h4.825l-.087-17.444 3.816 17.444H209V75.122h-4.827l.045 17.403-3.772-17.403h-4.957v34.28zm-52.334 0v.786h5.352a8.011 8.011 0 002.676-.306c.746-.175 1.447-.569 1.929-1.181.132-.132.264-.262.351-.438h.045a8.738 8.738 0 001.008-2.272c.527-1.968.834-3.979 1.01-5.99v-.044c.183-4.443.212-8.891.087-13.336 0-1.705-.132-3.454-.483-5.159a13.522 13.522 0 00-1.008-3.367 5.333 5.333 0 00-1.844-2.23c-.043-.044-.087-.088-.13-.088h-.045c-.307-.218-.658-.35-1.053-.437a5.873 5.873 0 00-1.491-.218h-6.404v34.28zm4.561-5.728v-22.08c.528 0 1.055 0 1.581.087a.82.82 0 01.35.088h.045c.132.087.262.218.351.35.043.044.043.088.087.175.131.349.263.7.35 1.05.219.742.307 1.53.351 2.316.219 3.41.264 6.82.175 10.232 0 1.443-.087 2.885-.219 4.328-.087.918-.307 1.793-.57 2.666-.044.132-.132.263-.175.35h-.045c-.044.132-.175.219-.264.262h-.043a.844.844 0 01-.439.131h-.307l-1.228.045zm-35.093 5.728v.786h4.342V95.496c.527 0 1.009.045 1.492.132h.044c.131 0 .262.045.394.087.219.088.351.218.527.395.175.306.35.654.394 1.005.132.569.176 1.18.219 1.749l.088 6.296c0 1.486.088 2.929.264 4.371l.088.656h5.526l-.613-1.223c-.264-.525-.483-1.049-.571-1.662-.088-.655-.175-1.311-.175-1.968l-.175-7.258c0-1.05-.088-2.142-.263-3.148a5.783 5.783 0 00-.966-2.404l-.044-.045a1.694 1.694 0 00-.394-.393c.087-.087.175-.176.219-.263.525-.743.921-1.574 1.097-2.492.482-2.668.57-5.378.219-8.045a9.827 9.827 0 00-.703-2.973 5.235 5.235 0 00-1.535-2.23l-.044-.043a5.022 5.022 0 00-2.632-.92h-6.8v34.282h.002zm4.343-20.113v-7.914h1.009c.351 0 .658.044 1.009.175.176.087.351.175.482.35 0 0 0 .044.044.044v.043c.044.044.044.087.088.131.176.35.308.743.352 1.094.175 1.442.131 2.885-.044 4.284-.044.394-.176.743-.308 1.093-.088.175-.219.306-.351.437a2.905 2.905 0 01-.877.263h-1.404zm-29.347 3.366c-.044 2.011 0 3.98.088 5.991.044 1.574.175 3.148.35 4.722v.043c.176 1.486.57 2.973 1.14 4.416.308.832.835 1.576 1.492 2.23.131.132.308.219.439.35h.044c.307.219.657.35 1.008.438.746.175 1.492.219 2.238.043a4.46 4.46 0 001.272-.48v-.045h.044a4.804 4.804 0 001.536-1.836c.088-.175.219-.35.263-.525.658-1.531 1.097-3.192 1.228-4.853.44-5.422.57-10.843.351-16.22a52.867 52.867 0 00-.394-5.248c-.175-1.442-.57-2.886-1.097-4.241a6.361 6.361 0 00-1.535-2.186c-.176-.132-.308-.262-.44-.35l-.044-.044a3.99 3.99 0 00-1.008-.393 4.82 4.82 0 00-2.237 0 4.44 4.44 0 00-1.272.48v.045h-.044c-.615.48-1.141 1.137-1.536 1.836l-.263.525a16.869 16.869 0 00-1.185 4.59c-.35 3.542-.526 7.128-.438 10.712zm4.211.044v-.044c0-2.142 0-4.328.087-6.47 0-1.137.132-2.23.308-3.324v-.043c.049-.439.167-.867.35-1.268.088-.175.176-.35.351-.481l.088-.087c.22-.13.527-.13.79 0 0 .044.044.044.088.087.044.044.131.087.175.131.175.263.307.525.351.831.22.787.307 1.574.395 2.361.175 4.286.219 8.571.13 12.9v.043a38.033 38.033 0 01-.306 4.984c-.05.48-.168.951-.35 1.398-.089.176-.176.35-.352.482 0 .044-.088.087-.131.131-.22.087-.527.087-.746-.044-.044 0-.088-.043-.088-.043h-.044a.632.632 0 01-.131-.177c-.175-.218-.307-.524-.395-.831a11.456 11.456 0 01-.35-2.142 106.886 106.886 0 01-.22-8.394zm-29.084 5.334H62v4.46c0 1.313.132 2.624.44 3.891.224.921.61 1.794 1.14 2.581.482.786 1.271 1.398 2.15 1.704a5.578 5.578 0 003.86-.043c.745-.306 1.447-.788 1.93-1.4a8.027 8.027 0 001.448-3.322c.174-.908.262-1.83.263-2.755l.044-27.24v-.787h-5.22v22.386c.044 1.88 0 3.761-.044 5.684 0 .306-.044.656-.131 1.006a.617.617 0 01-.088.262c-.044.044-.044.088-.088.088a.272.272 0 01-.308.043l-.087-.043a.969.969 0 01-.131-.218l-.131-.395c-.044-.306-.088-.612-.088-.918v-4.985l-4.213.001zm106.773 11.237l-.088.918h4.65l.833-8.394h2.677l.833 8.394h4.869l-4.21-35.066h-5.528l-4.036 34.148zm-60.8-15.171l-2.545-6.385h-1.36l-2.5 6.385h1.359l.527-1.444h2.588l.526 1.444h1.405zm-2.369-2.536h-1.754l.877-2.361.877 2.36zm28.075 2.797h1.272v-6.382h-1.272v6.382zm26.627.656h1.317v-2.623h.262c.177-.045.351 0 .527 0a.731.731 0 01.308.175c.131.044.218.176.308.263.219.261.394.525.569.83l.923 1.355h1.579l-.79-1.223c-.132-.218-.308-.438-.44-.656a2.877 2.877 0 00-1.008-.918.89.89 0 00.482-.131 1.53 1.53 0 00.834-.525c.264-.306.396-.701.396-1.136 0-.087 0-.219-.045-.307-.045-.569-.439-1.05-.966-1.268a.884.884 0 00-.482-.131c-.351-.044-.703-.088-1.052-.044h-2.721v6.34h-.001zm1.317-3.672v-1.618h1.711c.087 0 .175.045.219.045h.131a.702.702 0 01.439.35c.087.13.087.262.087.393v.175a.76.76 0 01-.526.612c-.088 0-.176 0-.263.044h-1.798z" fill="#464646"/><path fill-rule="evenodd" clip-rule="evenodd" d="M175.618 95.148h1.314l-.658-6.559-.656 6.559z" fill="#fff"/><defs><clipPath id="clip0_138_263"><path fill="#fff" transform="translate(105 18)" d="M0 0h58v54H0z"/></clipPath></defs></svg>