<svg width="270" height="140" fill="none" xmlns="http://www.w3.org/2000/svg"><path fill-rule="evenodd" clip-rule="evenodd" d="M195.636 85.151h.357c.219 0 .377.041.477.141.04.02.06.041.079.06.159.141.338.424.557.806l.338.604h.715l-.436-.745a5.033 5.033 0 00-.557-.745.97.97 0 00-.318-.2c.318-.02.576-.141.775-.343a.999.999 0 00.299-.725c0-.2-.061-.383-.18-.543a.86.86 0 00-.476-.363c-.159-.06-.397-.1-.716-.1-.059 0-.139-.02-.218-.02h-1.291v3.783h.595v-1.61zm0-1.65h.913c.18.02.298.04.378.06.108.031.2.103.257.201.06.08.08.182.08.303a.513.513 0 01-.179.402c-.1.1-.279.14-.536.161h-.914v-1.127h.001zm-89.197.423h5.363l-5.363-9.057-4.529-7.628-19.246 11.714 2.94 4.97h20.835zm49.891 0h26.198L166.221 56.39 148.187 26l-7.428 4.529-11.798 7.184 11.798 19.906 15.571 26.305zM147.175 93c-1.848-1.207-4.013-1.912-6.357-1.912h-.059c-6.474.04-11.738 5.394-11.738 11.955 0 6.562 5.264 11.915 11.738 11.956h.059c2.344 0 4.509-.704 6.357-1.912v1.248h5.421v-30.41h-5.421V93zm0 11.292c-.576 3.019-3.218 5.333-6.357 5.333h-.059c-3.556-.04-6.435-2.979-6.435-6.582 0-3.602 2.879-6.54 6.435-6.561h.059c3.139 0 5.781 2.295 6.357 5.314v2.496zM172.637 93a11.499 11.499 0 00-6.356-1.912h-.06c-6.475.04-11.737 5.394-11.737 11.955 0 6.562 5.262 11.915 11.737 11.956h.06c2.344 0 4.529-.704 6.356-1.912v1.248h5.423V91.693h-5.423V93zm0 11.292c-.576 3.019-3.218 5.333-6.356 5.333h-.06c-3.554-.04-6.434-2.979-6.434-6.582 0-3.602 2.88-6.54 6.434-6.561h.06c3.138 0 5.779 2.295 6.356 5.314v2.496zm24.708-2.738c-.199-.102-.477-.202-.796-.322-1.211-.423-3.177-.946-5.918-1.55-2.404-.544-3.615-1.247-3.615-2.133 0-.624.218-1.128.635-1.49.557-.483 1.549-.725 2.98-.725 1.449 0 2.502.323 3.118.946.378.383.655 1.066.834 2.033h5.76c0-2.858-1.152-4.91-3.416-6.158a2.229 2.229 0 00-.378-.2c-1.569-.746-3.654-1.128-6.256-1.128-3.158 0-5.541.845-7.129 2.556-1.271 1.368-1.887 3.038-1.887 5.01 0 2.457 1.191 4.228 3.615 5.375.913.443 3.137 1.067 6.673 1.832 2.364.523 3.554 1.268 3.554 2.214 0 .564-.237 1.047-.753 1.49-.656.563-1.65.845-2.98.845-1.768 0-3.019-.301-3.753-.885-.736-.563-1.114-1.388-1.114-2.435h-6.037c0 2.778 1.152 4.85 3.475 6.218 1.848 1.067 4.271 1.611 7.271 1.611 2.005 0 3.792-.343 5.322-1.006.318-.141.597-.282.895-.443 2.363-1.328 3.555-3.441 3.555-6.339-.001-2.377-1.214-4.149-3.655-5.316zM87.153 93.001a11.61 11.61 0 00-6.375-1.912h-.06C74.263 91.13 69 96.483 69 103.044c0 6.562 5.263 11.915 11.718 11.956h.06a11.6 11.6 0 006.375-1.912v1.248h5.422V91.693h-5.422V93zm0 11.292c-.576 3.019-3.218 5.333-6.375 5.333h-.06c-3.535-.04-6.415-2.979-6.415-6.582 0-3.602 2.88-6.54 6.415-6.561h.06c3.158 0 5.8 2.295 6.375 5.314v2.496zm33.844-14.995h5.899v-5.253h-5.899v5.253zm0 25.037h5.899V91.089h-5.899v23.246zm-8.123-21.334a11.613 11.613 0 00-6.376-1.912h-.059c-6.475.04-11.739 5.394-11.739 11.955 0 6.562 5.263 11.915 11.739 11.956h.059c2.263 0 4.477-.664 6.376-1.912v1.248h5.422V83.925h-5.422V93zm0 11.292c-.576 3.019-3.218 5.333-6.376 5.333h-.059c-3.556-.04-6.436-2.979-6.436-6.582 0-3.602 2.88-6.54 6.436-6.561h.059c3.158 0 5.8 2.295 6.376 5.314v2.496zm34.28-20.37l-6.395-10.827-15.71-26.486-18.61 11.351-.636.382.636 1.067 14.537 24.514h26.178z" fill="#464646"/></svg>