<svg width="360" height="360" fill="none" xmlns="http://www.w3.org/2000/svg"><path d="M131.415 136.494l52.902 21.056a3.832 3.832 0 004.979-2.143l14.491-36.408a3.832 3.832 0 00-2.144-4.978l-52.901-21.057a3.833 3.833 0 00-4.978 2.144l-14.492 36.408a3.83 3.83 0 00.889 4.164c.36.351.787.628 1.254.814z" fill="#FF7800"/><path d="M135.176 112.777a1.448 1.448 0 01.77-.793 1.434 1.434 0 011.106-.013l28.67 11.412 8.129-20.425a1.441 1.441 0 011.321-.911c.19-.002.378.034.554.105a1.437 1.437 0 01.91 1.321c.002.19-.033.378-.103.554l-8.129 20.423 28.67 11.412a1.448 1.448 0 01.792.771 1.437 1.437 0 01-.292 1.577 1.433 1.433 0 01-1.015.437 1.445 1.445 0 01-.554-.103l-28.669-11.411-8.129 20.424a1.448 1.448 0 01-.77.792 1.457 1.457 0 01-.551.118 1.457 1.457 0 01-1.027-.409 1.449 1.449 0 01-.334-1.569l8.129-20.423-28.671-11.413a1.443 1.443 0 01-.807-1.876zm69.166-26.34v65.32a6.064 6.064 0 006.066 6.066h83.68a6.064 6.064 0 006.066-6.066v-65.32a1.321 1.321 0 00-.389-.945 1.321 1.321 0 00-.945-.389h-93.158c-.728 0-1.32.593-1.32 1.335z" fill="#FF8CD0"/><path d="M252.247 134.117l9.824 5.165a.842.842 0 001.222-.888l-1.877-10.939 7.948-7.748a.842.842 0 00-.467-1.436l-10.983-1.596-4.912-9.952a.843.843 0 00-1.511 0l-4.912 9.952-10.983 1.596a.842.842 0 00-.467 1.436l7.948 7.748-1.876 10.939a.842.842 0 001.221.888l9.825-5.165zM134.388 81.519c.052.489.164 1 .296 1.501 1.268 4.696 4.978 8.054 9.394 9.112-.023.06 46.804 17.781 46.804 17.781a3.711 3.711 0 004.797-2.17l1.127-2.982 2.505-6.592 5.127-13.532.359-4.6 2.474-2.878 2.834-7.482a3.207 3.207 0 00-1.885-4.12l-3.718-1.367-4.27-.13-3.276-2.643-13.472-4.95-5.243.861-2.731-3.79-11.794-4.334c-1.648-.614-2.481.205-3.089 1.84l-1.746 2.02-4.207 11.107-1.564 4.11a12.905 12.905 0 00-9.39-1.066 13.102 13.102 0 00-4.275 2.077c-3.764 2.77-5.796 7.46-5.057 12.227z" fill="#FFE435"/><path d="M204.447 84.64l.722-1.92 2.108-5.559a4.004 4.004 0 00-4.75 2.643 4.033 4.033 0 001.92 4.837zm-23.059-11.898a4.06 4.06 0 00.218 3.089 4.047 4.047 0 10-.218-3.09zm17.919-5.731a4.05 4.05 0 005.126-2.555c.03-.09.054-.182.072-.275l-7.551-2.758a4.574 4.574 0 00-.202.477 4.044 4.044 0 002.555 5.111zm-12.153 23.636a4.059 4.059 0 00-.199 1.566 4.059 4.059 0 002.754 3.553 4.052 4.052 0 003.089-.217 4.035 4.035 0 002.031-2.338 4.04 4.04 0 00-.218-3.089 4.044 4.044 0 00-6.674-.846 4.03 4.03 0 00-.783 1.371zm-26.902-24.966a4.047 4.047 0 107.677 2.565 4.047 4.047 0 00-7.677-2.565zm17.932-5.73a4.04 4.04 0 005.111-2.556c.102-.303.174-.606.188-.923l-7.321-2.686a3.83 3.83 0 00-.534 1.054 4.032 4.032 0 002.556 5.111zm-19.305-6.887a4.051 4.051 0 003.278-2.73 4.22 4.22 0 00.216-1.313 3.171 3.171 0 00-2.743 2.05l-.751 1.993zm7.139 30.523a4.059 4.059 0 00-.199 1.566 4.047 4.047 0 107.656-2.091 4.044 4.044 0 00-7.457.525zm-21.136-7.062a4.04 4.04 0 00.218 3.09 4.043 4.043 0 006.674.846 4.03 4.03 0 00.981-2.938 4.045 4.045 0 00-7.873-.998z" fill="#FF8CD0"/><path d="M134.389 81.519c.052.489.164 1 .296 1.501 1.268 4.696 4.978 8.054 9.393 9.112-.022.06 46.805 17.781 46.805 17.781a3.71 3.71 0 004.796-2.17l1.128-2.982-62.418-23.242zm31.419-11.987a1.443 1.443 0 00.504-2.797l-11.036-4.11a1.45 1.45 0 00-1.857.85 1.443 1.443 0 00.85 1.857l11.036 4.11c.161.06.332.09.503.09zm2.729-7.328a1.446 1.446 0 001.353-.94 1.443 1.443 0 00-.85-1.857l-11.036-4.11a1.45 1.45 0 00-1.857.85 1.448 1.448 0 00.85 1.857l11.037 4.11c.161.06.331.09.503.09z" fill="#9264FF"/><path d="M307.527 137.796L62.215 168.373c-.496-10.261-2.661-36.88-11.571-36.811-12.22.096-16.633 27.488-18.028 40.508-.44 4.068-.593 6.73-.593 6.73l48.274-6.44 80.686 170.915 140.256-52.397v-5.875H150.294l157.233-62.411v-84.796zm-24.563 153.082l-116.809 42.688-20.343-42.688h137.152z" fill="#F1BF5D"/><path d="M293.998 148.731L93.434 170.89l45.539 105.795.257.599 162.754-59.402-7.986-69.151zm-64.741 50.978l-21.254 5.81-6.033-21.736 22.021-4.102 5.266 20.028zm-3.907-20.281l25.308-4.716 3.767 18.116-23.838 6.518-5.237-19.918zm-18.677 26.455l-33.097 9.047-7.282-24.501 34.316-6.393 6.063 21.847zm.369 1.329l5.424 19.542-32.245 10.538-6.252-21.038 33.073-9.042zm1.329-.363l21.238-5.805 4.869 18.517-20.7 6.764-5.407-19.476zm22.567-6.169l23.769-6.498 3.656 17.573-22.573 7.377-4.852-18.452zm25.101-6.862l18.807-5.141 2.418 16.901-17.583 5.746-3.642-17.506zm20.149-5.508l20.35-5.563 1.84 15.931-19.783 6.466-2.407-16.834zm-.197-1.376l-2.36-16.5 21.032-3.918 1.714 14.846-20.386 5.572zm-1.342.367l-18.891 5.164-3.744-18.004 20.259-3.775 2.376 16.615zm-22.916-14.192l-3.724-17.909 21.706-2.398 2.363 16.517-20.345 3.79zm-1.356.253l-25.379 4.728-5.199-19.773 26.834-2.964 3.744 18.009zm-26.738 4.981l-22.039 4.106-5.958-21.463 22.772-2.516 5.225 19.873zm-23.4 4.359l-34.34 6.397-7.012-23.594-1.323.393 6.97 23.456-32.792 6.108-12.833-25.998 75.344-8.326 5.986 21.564zm-35.308 7.981l7.314 24.612-27.059 7.397-12.808-25.945 32.553-6.064zm-21.1 32.378l-23.654 6.467-12.157-28.243 22.95-4.275 12.861 26.051zm.623 1.261l10.482 21.233-24.425 7.982-9.783-22.729 23.726-6.486zm1.353-.37l26.831-7.335 6.271 21.103-22.65 7.402-10.452-21.17zm33.496 15.091l5.937 19.978-18.741 6.841-9.622-19.491 22.426-7.328zm1.312-.429l32.221-10.529 5.259 18.946-31.556 11.517-5.924-19.934zm33.533-10.959l20.68-6.758 4.806 18.272-20.24 7.387-5.246-18.901zm21.993-7.187l22.503-7.354 3.616 17.379 1.35-.281-3.645-17.529 17.498-5.718 2.499 17.486-39.028 14.244-4.793-18.227zm42.652-13.938l19.747-6.454 1.949 16.882-19.201 7.008-2.495-17.436zm15.711-41.388l-21.068 3.924-2.348-16.416 21.698-2.398 1.718 14.89zm-177.053 4.483l12.885 26.1-22.875 4.261-12.023-27.929 22.013-2.432zm13.608 85.183l24.493-8.004 9.643 19.534-25.213 9.202-8.923-20.732z" fill="#FFF0BA"/><path d="M179.602 348.195c0 6.52-8.417 11.805-18.8 11.805-10.382 0-18.8-5.285-18.8-11.805s8.418-11.805 18.8-11.805c10.383-.001 18.8 5.284 18.8 11.805zm148.371-57.956c0 6.521-8.417 11.806-18.8 11.806-10.383 0-18.8-5.285-18.8-11.806 0-6.52 8.418-11.804 18.8-11.804 10.383-.001 18.8 5.284 18.8 11.804z" fill="#00304C"/><path d="M160.802 352.545c4.095 0 7.414-1.948 7.414-4.35 0-2.402-3.319-4.349-7.414-4.349-4.094 0-7.413 1.947-7.413 4.349s3.319 4.35 7.413 4.35zm146.725-57.956c4.095 0 7.414-1.947 7.414-4.35 0-2.402-3.319-4.349-7.414-4.349-4.094 0-7.414 1.947-7.414 4.349 0 2.403 3.32 4.35 7.414 4.35z" fill="#FFB50D"/><path d="M215.467 78.65l70.362 21.044a4.945 4.945 0 006.154-3.32l2.2-7.358-.548-1.69 1.376-1.076 8.477-28.344-.41-1.626 1.238-1.14 2.15-7.19a4.944 4.944 0 00-3.32-6.153l-2.746-.821-1.843.574-.924-1.402-12.795-3.827-1.778.491-.989-1.318-28.344-8.478-1.694.452-1.072-1.28-12.795-3.826-1.782.37-.985-1.197-2.614-.782a4.943 4.943 0 00-6.153 3.32L215.123 62.55l.723 1.698-1.55 1.069-2.148 7.18a4.947 4.947 0 001.615 5.25c.503.41 1.082.716 1.704.902z" fill="#F96024"/><path d="M215.127 62.553l7.447 2.21 3.799-12.805-3.339-2.489-4.081.288.821-2.768 3.462 2.038 3.957.162 3.795-12.79-7.392-2.193.835-2.764 7.377 2.188 3.589-12.098 2.765.835-3.585 12.085 12.805 3.798 3.576-12.056 2.769.821-3.577 12.057 12.804 3.798 3.569-12.03 2.764.836-3.564 12.015 12.79 3.794 3.556-11.987 2.769.821-3.556 11.987 12.804 3.799 3.548-11.96 2.764.835-3.544 11.946 7.461 2.213-.835 2.765-7.447-2.21-3.794 12.79 7.419 2.202-.821 2.768-7.42-2.2-3.798 12.803 7.392 2.193-.835 2.765-7.378-2.189-3.588 12.098-2.765-.835 3.585-12.084-12.804-3.798-3.577 12.057-2.764-.835 3.572-12.043-12.79-3.794-3.564 12.015-2.769-.821 3.564-12.015-12.804-3.799-3.556 11.988-2.764-.835 3.552-11.973-12.804-3.799-3.544 11.947-2.765-.835 3.54-11.932-7.461-2.213.835-2.767zm56.92 16.885l12.804 3.798 3.798-12.804-12.804-3.798-3.798 12.804zm4.619-15.573l12.804 3.799 3.794-12.79-12.804-3.799-3.794 12.79zm-20.178 10.958l12.791 3.794 3.798-12.804-12.79-3.794-3.799 12.804zm4.62-15.573l12.79 3.794 3.794-12.79-12.79-3.794-3.794 12.79zm-20.193 10.953L253.719 74l3.799-12.804-12.804-3.798-3.799 12.804zm4.62-15.573l12.804 3.799 3.794-12.79-12.804-3.799-3.794 12.79zm-20.192 10.953l12.804 3.799 3.798-12.804-12.804-3.799-3.798 12.804zm4.619-15.572l12.804 3.798 3.795-12.79-12.804-3.798-3.795 12.79z" fill="#FFA367"/><path d="M219.803 46.902l38.535 11.525 7.754-25.928c-3.071-2.024-12.071-8.134-13.807-11.353a8.492 8.492 0 01-.667-6.504 8.496 8.496 0 014.128-5.071 8.497 8.497 0 016.506-.667 8.493 8.493 0 015.07 4.128c1.33 2.464 1.738 9.402 1.859 14.177 2.723-3.924 6.873-9.5 9.337-10.829 4.147-2.238 9.341-.683 11.576 3.463a8.495 8.495 0 01.666 6.506 8.49 8.49 0 01-4.13 5.072c-3.218 1.735-14.092 1.901-17.771 1.907l-7.755 25.927 38.533 11.525a1.443 1.443 0 11-.823 2.768l-38.538-11.526-8.244 27.565a1.432 1.432 0 01-.697.857 1.446 1.446 0 01-1.597-.15 1.444 1.444 0 01-.473-1.534l8.245-27.565-38.534-11.525a1.447 1.447 0 01-.945-1.79 1.449 1.449 0 011.772-.978zm44.978-32.499a5.625 5.625 0 00-3.369-2.736 5.622 5.622 0 00-4.295.445 5.627 5.627 0 00-2.732 3.356 5.616 5.616 0 00.441 4.308c1.047 1.94 6.912 6.307 11.507 9.415-.073-5.546-.504-12.848-1.552-14.788zm20.479 14.475a5.621 5.621 0 002.734-3.358 5.634 5.634 0 00-.442-4.308 5.627 5.627 0 00-3.37-2.736 5.62 5.62 0 00-4.294.445c-1.94 1.047-6.307 6.912-9.414 11.507 5.546-.073 12.846-.504 14.786-1.55z" fill="#FFE435"/><path d="M110.501 87.393c7.647 2.465 14.071 7.24 18.083 13.452 4.134 6.392 5.243 13.53 3.123 20.097l-4.963 15.389c.216 10.145-7.074 26.488-13.929 24.277-9.358-3.019.857-34.76 10.238-31.733.024.011 3.157-9.705 3.157-9.705 1.578-4.887.698-10.281-2.476-15.19-3.294-5.088-8.619-9.032-15.006-11.091-12.966-4.182-26.22.802-29.546 11.109l-3.135 9.718c9.427 3.036-.832 34.762-10.19 31.743-6.841-2.207-3.235-19.664 2.847-27.791l4.982-15.442c4.304-13.339 20.82-19.993 36.815-14.833z" fill="#9264FF"/><path d="M106.965 162.069a5.119 5.119 0 006.443-3.301l9.05-28.052a5.12 5.12 0 00-9.744-3.144l-9.049 28.053a5.12 5.12 0 003.3 6.444zM69.75 150.064a5.12 5.12 0 01-3.3-6.444l9.05-28.053a5.12 5.12 0 019.743 3.143l-9.05 28.053a5.12 5.12 0 01-6.443 3.301z" fill="#FF7800"/></svg>