<svg width="280" height="280" fill="none" xmlns="http://www.w3.org/2000/svg"><path d="M164.587 192.916H148.89a2.279 2.279 0 01-2.043-1.3l-11.222-23.97a17.735 17.735 0 00-15.969-10.146H70.131a17.74 17.74 0 00-15.977 10.154l-11.21 23.949a2.285 2.285 0 01-2.055 1.313h-5.732A17.667 17.667 0 0017.5 210.564v24.325a11.024 11.024 0 0011.012 11.017h9.375a20.957 20.957 0 0040.994 0h41.983a21.001 21.001 0 0040.989 0h9.376a11.024 11.024 0 0011.011-11.017v-24.325a17.67 17.67 0 00-17.653-17.648zM58.389 253.75a12.217 12.217 0 01-12.22-12.219 12.221 12.221 0 0120.86-8.641 12.221 12.221 0 010 17.281 12.218 12.218 0 01-8.64 3.579zm82.976 0a12.22 12.22 0 11-.001-24.439 12.22 12.22 0 01.001 24.439zm32.13-18.856a2.297 2.297 0 01-2.262 2.262h-9.376a20.998 20.998 0 00-33.631-11.816 20.992 20.992 0 00-7.362 11.816H78.881a21.002 21.002 0 00-20.495-16.421 21 21 0 00-20.494 16.421h-9.38a2.295 2.295 0 01-2.262-2.267v-24.325a8.906 8.906 0 018.903-8.898h5.74a11.073 11.073 0 009.97-6.344l11.214-23.949a8.954 8.954 0 018.054-5.123h49.525a8.948 8.948 0 018.05 5.114l10.089 21.552H94.268a2.279 2.279 0 01-2.047-1.308l-6.388-13.651a4.378 4.378 0 00-5.785-2.039 4.377 4.377 0 00-2.138 5.749l6.387 13.651a11.057 11.057 0 009.975 6.343h51.932c1.771-.166 16.253.11 18.388 0a8.906 8.906 0 018.898 8.903l.005 24.33zM225.562 17.5a36.984 36.984 0 00-36.938 36.938c0 20.965 21.249 46.449 30.388 56.429a8.949 8.949 0 006.55 2.856 8.944 8.944 0 006.549-2.856c9.139-9.98 30.389-35.464 30.389-56.429A36.983 36.983 0 00225.562 17.5zm-.097 87.461c-6.588-7.202-28.091-32.122-28.091-50.523a28.185 28.185 0 0128.188-28.188 28.19 28.19 0 0128.188 28.188c0 18.401-21.503 43.321-28.285 50.523z" fill="#91824C"/><path d="M225.562 36.938a17.498 17.498 0 00-17.5 17.5 17.5 17.5 0 1017.5-17.5zm0 26.25a8.749 8.749 0 110-17.497 8.749 8.749 0 010 17.497zM175.481 50.05h-21.875a4.373 4.373 0 00-3.093 7.469 4.373 4.373 0 003.093 1.281h21.875a4.376 4.376 0 100-8.75zm-7.962 85.575a4.377 4.377 0 004.375 4.375h21.875a4.375 4.375 0 000-8.75h-21.875a4.374 4.374 0 00-4.375 4.375zm-129.588-7.976C33.556 136.356 56.704 140.201 62.52 140a4.374 4.374 0 10-.044-8.75 36.208 36.208 0 01-18.541-5.114 4.38 4.38 0 00-6.003 1.513zm196.473 17.295a4.382 4.382 0 005.963-1.65c4.178-8.719-18.966-12.171-24.719-12.044a4.378 4.378 0 00-4.045 6.047 4.378 4.378 0 004.041 2.703 38.235 38.235 0 0118.76 4.944zm20.834 49.254a4.367 4.367 0 00-5.92 1.811 37.867 37.867 0 01-6.764 9.113c-2.66 3.605-10.832 5.604-7.717 11.2 4.34 5.539 10.36-2.087 13.904-5.014 3.145-3.832 13.116-12.845 6.497-17.11zm-5.443-41.712a4.377 4.377 0 00-1.487 6.003 38.129 38.129 0 015.424 18.615 4.379 4.379 0 007.55 2.9 4.374 4.374 0 001.2-3.127c-.013-5.723-4.081-28.809-12.687-24.391zM42.936 54.508c-5.154 2.188-24.565 16.021-16.773 21.814a4.376 4.376 0 006.063-1.238 36.357 36.357 0 0114.517-12.696 4.375 4.375 0 10-3.807-7.88zM17.544 93.034c-.464 5.723 2.371 29.107 11.274 25.1a4.374 4.374 0 001.768-5.933 36.158 36.158 0 01-4.336-17.158c1.396-6.65-7.7-8.847-8.706-2.009zm200.152 123.218c-.687.039-1.396.039-2.1.048h-19.535c-1.16 0-2.273.461-3.093 1.282a4.372 4.372 0 000 6.187 4.375 4.375 0 003.093 1.281c1.663-.017 21.044.066 22.116-.066a4.377 4.377 0 002.592-7.572 4.377 4.377 0 00-3.073-1.16zM80.019 135.625A4.377 4.377 0 0084.394 140h21.875a4.375 4.375 0 000-8.75H84.394a4.373 4.373 0 00-4.375 4.375zM131.73 50.05h-21.875a4.373 4.373 0 00-3.093 7.469 4.373 4.373 0 003.093 1.281h21.875a4.376 4.376 0 100-8.75zm-7.962 85.575a4.377 4.377 0 004.375 4.375h21.875a4.375 4.375 0 000-8.75h-21.875a4.374 4.374 0 00-4.375 4.375zM87.981 50.05H66.106a4.375 4.375 0 100 8.75h21.875a4.375 4.375 0 100-8.75z" fill="#91824C"/></svg>