<svg width="197" height="31" fill="none" xmlns="http://www.w3.org/2000/svg"><g clip-path="url(#clip0_1_829)" fill="#2B2929"><path d="M20.018 0c2.674 0 4.976.227 6.906.68 1.952.428 3.607 1.016 4.965 1.763 1.38.748 2.493 1.629 3.342 2.644.849.988 1.506 2.029 1.973 3.124a12.85 12.85 0 01.987 3.364c.17 1.121.254 2.203.254 3.244v1.202a22.24 22.24 0 01-.254 3.244 13.472 13.472 0 01-.987 3.364 12.446 12.446 0 01-1.973 3.204c-.849.988-1.963 1.87-3.342 2.644-1.358.774-3.013 1.388-4.965 1.842-1.951.454-4.254.681-6.906.681h-1.591c-2.652 0-4.954-.227-6.906-.68-1.93-.455-3.586-1.069-4.965-1.843-1.358-.775-2.472-1.656-3.342-2.644A13.2 13.2 0 011.21 22.63a14.316 14.316 0 01-.954-3.364A22.235 22.235 0 010 16.02v-1.202c0-1.041.085-2.123.255-3.244.17-1.148.488-2.27.954-3.364a12.777 12.777 0 012.005-3.124c.85-1.015 1.952-1.896 3.31-2.644 1.38-.747 3.034-1.335 4.965-1.762C13.441.227 15.754 0 18.427 0h1.591zm5.952 15.06c0-.641-.117-1.296-.35-1.963a4.45 4.45 0 00-1.114-1.802c-.51-.534-1.2-.962-2.069-1.282-.87-.347-1.952-.52-3.246-.52-1.316 0-2.408.173-3.278.52-.87.32-1.56.748-2.069 1.282a4.615 4.615 0 00-1.082 1.802 6.46 6.46 0 00-.318 1.962v.481c0 .668.106 1.349.318 2.043a5.445 5.445 0 001.146 1.922c.53.56 1.22 1.028 2.068 1.402.87.347 1.942.52 3.215.52 1.294 0 2.366-.173 3.214-.52.87-.347 1.57-.801 2.1-1.362a4.728 4.728 0 001.115-1.882c.233-.694.35-1.375.35-2.043v-.56zM55.8 31c-3.31 0-6.026-.454-8.148-1.362-2.122-.934-3.798-2.123-5.029-3.564-1.209-1.469-2.047-3.084-2.514-4.847-.467-1.789-.7-3.538-.7-5.246v-1.202c0-1.896.265-3.725.796-5.487.53-1.789 1.474-3.364 2.832-4.726 1.38-1.389 3.236-2.497 5.57-3.324C50.962.414 53.964 0 57.613 0h1.019c2.8 0 5.198.2 7.192.6 1.995.375 3.67.882 5.029 1.523 1.358.614 2.44 1.335 3.246 2.163.806.827 1.422 1.682 1.846 2.563a8.15 8.15 0 01.86 2.603c.126.855.19 1.642.19 2.363v.04H64.647c-.043-.187-.149-.44-.319-.76-.148-.321-.445-.628-.89-.922-.425-.32-1.04-.587-1.847-.8-.785-.241-1.835-.361-3.15-.361-1.189 0-2.196.16-3.024.48-.827.294-1.506.708-2.037 1.242a4.949 4.949 0 00-1.177 1.922c-.234.748-.35 1.576-.35 2.483v.361a9.7 9.7 0 00.35 2.643 5.846 5.846 0 001.114 2.123c.53.588 1.199 1.055 2.005 1.402.827.347 1.835.52 3.023.52 1.167 0 2.133-.093 2.896-.28.785-.213 1.4-.454 1.846-.72.467-.294.785-.588.955-.882.19-.294.286-.547.286-.76h-6.397v-6.089h19.223V30.4H69.04c-.106-.427-.297-.961-.574-1.602-.275-.64-.562-1.148-.859-1.522-.19.214-.53.534-1.018.961-.467.4-1.135.815-2.005 1.242-.849.4-1.92.748-3.214 1.041-1.295.32-2.875.481-4.742.481H55.8zm43.48-3.443c-1.546 0-2.867-.112-3.962-.336-1.095-.207-2.02-.49-2.772-.853-.753-.361-1.355-.775-1.807-1.24a5.529 5.529 0 01-1.006-1.447c-.233-.5-.383-.99-.452-1.473-.068-.5-.102-.956-.102-1.37v-.206h9.137c0 .207.027.43.082.672.055.24.164.465.328.672.164.206.404.379.72.516.327.138.759.207 1.293.207.451 0 .828-.034 1.129-.103.301-.086.541-.19.719-.31a.997.997 0 00.369-.414 1.19 1.19 0 00.123-.517v-.077c0-.155-.027-.31-.082-.465-.041-.155-.157-.293-.349-.414-.192-.12-.479-.224-.862-.31-.37-.086-.883-.146-1.54-.18l-3.224-.13c-1.574-.069-2.854-.284-3.84-.646-.985-.361-1.759-.818-2.32-1.37a4.383 4.383 0 01-1.129-1.886 7.81 7.81 0 01-.308-2.196v-.232c0-.896.157-1.706.473-2.43.314-.723.848-1.335 1.6-1.834.753-.517 1.746-.905 2.978-1.163 1.246-.276 2.793-.413 4.64-.413h2.608c2.054 0 3.73.163 5.03.49 1.314.31 2.341.741 3.081 1.293.752.55 1.273 1.197 1.56 1.938a6.23 6.23 0 01.431 2.325v.13h-8.952a2.296 2.296 0 00-.103-.492 1.14 1.14 0 00-.328-.516c-.165-.155-.397-.285-.698-.388-.301-.103-.705-.155-1.212-.155a6.62 6.62 0 00-1.129.078c-.287.034-.514.094-.678.18a.662.662 0 00-.328.336.986.986 0 00-.082.414v.051c0 .19.04.354.123.491.096.121.253.233.472.336.219.086.52.164.903.233.384.052.87.086 1.459.103l3.079.104c1.492.051 2.745.206 3.758.465 1.026.258 1.854.628 2.485 1.11a4.002 4.002 0 011.375 1.81c.287.706.431 1.55.431 2.532v.362c0 .861-.137 1.697-.41 2.506-.274.793-.795 1.507-1.561 2.145-.753.62-1.807 1.12-3.162 1.498-1.355.38-3.121.569-5.298.569h-2.69zm19.736-12.997h-6.59V7.943h20.984v6.615h-6.591v12.61h-7.803V14.56zm23.272 5.788l-8.726-12.404h8.993l3.922 5.788 3.983-5.788h8.275l-8.644 12.533v6.692h-7.803v-6.822zm24.544-12.404v12.378h10.596v6.847H159.03V7.944h7.802zm30.086 0v5.375H186.18v1.499h10.615v5.271H186.18v1.654H197v5.426h-18.5V7.944h18.418z"/></g><defs><clipPath id="clip0_1_829"><path fill="#fff" d="M0 0h197v31H0z"/></clipPath></defs></svg>