<svg width="146" height="145" fill="none" xmlns="http://www.w3.org/2000/svg"><path d="M114.841 26.087a13.913 13.913 0 00-1.124-.123l6.593-6.4 4.613 2.745L140.216 1.7 99.655 5.713l8.288 5.218c-24.145 7.466-26.614 8.303-30.605 9.202a12.21 12.21 0 00-1.344-5.338c-2.356-4.537-7.626-6.928-12.412-5.758-5.213 1.275-8.73 6.542-7.839 11.742.682 3.98 3.905 7.724 8.952 9.092a204.34 204.34 0 01-2.917 5.72l-11.725 3.603c6.608-11.269-3.213-24.019-13.27-22.354-11.855 1.963-16.845 10.192-14.813 19.004a15.77 15.77 0 006.973 9.837l-10.348 3.18-12.811 74.131 107.79 20.309 15.274-72.333-15.431-12.502c6.321.575 12.713-2.378 16.134-7.65 3.285-5.063 3.551-11.633.677-16.736-2.998-5.323-9.095-8.18-15.387-7.993z" fill="#fff"/><path d="M77.944 34.515l46.793 37.912-14.051 66.544-100.612-18.956 11.798-68.268 56.072-17.232z" fill="#FF7800"/><path d="M76.205 72.782c-5.868.707-11.266 4.827-13.236 10.398-1.97 5.572-.257 12.325 4.307 16.08 5.236 4.306 15.276 4.937 20.562-4.33 2.663-4.67 3.344-10.64.968-15.462-2.377-4.822-7.948-7.247-12.601-6.686z" fill="#5ED4BE"/><path d="M71.27 84.35c2.504-.476 6.479-3.66 7.994 1.82.429 1.553.7 3.146.807 4.753.14 2.115.094 4.492 1.579 6.004.406.414.588.695.158 1.087-1.376 1.256-3.723.789-5.022-.546-3.082-3.168-1.516-10.056-4.091-11.825-.61-.419-1.547-.538-1.425-1.294zm-.58-5.648a3.02 3.02 0 00.82 1.817c.75.848 1.546.992 2.458.305a2.853 2.853 0 001.136-2.762c-.579-2.76-4.528-1.885-4.415.64z" fill="#fff"/><path d="M21.872 51.747l45.533 43.83 57.332-23.15-14.051 66.544-100.612-18.956 11.798-68.268z" fill="#FFC93D"/><path d="M107.482 136.163L68.805 97.955a.708.708 0 11.995-1.007l38.677 38.208a.71.71 0 01-.006.989.71.71 0 01-.989.018zm-96.03-17.349a.708.708 0 01.389-.922l52.038-21.097a.708.708 0 01.532 1.312l-52.038 21.097a.71.71 0 01-.922-.39z" fill="#CD772B"/><path d="M114.602 29.82c-5.866-1.105-12.32 2.924-12.882 10.45-.441 5.92 3.461 11.911 9.069 13.859 5.608 1.948 12.41-.358 15.64-5.339 2.46-3.79 2.773-8.947.556-12.884-2.217-3.938-6.966-6.365-12.383-6.086z" fill="#FF3D81"/><path d="M117.239 50.918c3.072-2.153 7.304-6.741 7.348-10.39.044-3.523-3.44-5.366-6.326-2.724-1.077.985-1.755 2.32-2.702 3.745-.716-1.444-1.464-2.928-2.686-3.979-4.262-3.662-8.492 1.493-5.501 6.814.891 1.586 2.236 2.871 3.661 4.002 1.797 1.425 3.862 2.683 6.206 2.532z" fill="#fff"/><path d="M37.39 20.512c-9.699 1.606-13.347 7.764-11.795 14.498 1.246 5.404 6.526 10.868 14.108 8.162 14.726-5.255 8.547-24.458-2.312-22.66z" fill="#776CFF"/><path d="M34.782 39.707c-4.03-1.157-7-6-4.527-10.613 2.39-4.46 7.908-5.426 10.988-2.344 2.378 2.38 1.869 6.218.293 7.297-.99.678-2.333.272-3.073-.514-.557 2.054-2.331 2.99-3.734 2.58-2.586-.756-2.774-5.218-.207-6.756 1.837-1.101 4.003.16 4.052 1.12.181.284.288 1.398.913 2.077.315.343.906.56 1.25.324.825-.565 1.291-3.34-.495-5.127-2.385-2.386-6.776-1.652-8.739 2.012-2.016 3.76.502 7.674 3.67 8.583 2.721.782 6-.5 7.625-2.978.374-.572.957-1.685.657-2.716a.707.707 0 111.36-.395c.34 1.168.044 2.548-.833 3.886-1.981 3.023-5.85 4.526-9.2 3.564zm.467-9.135c-1.534.92-1.47 3.788-.122 4.182.68.199 1.449-.386 1.768-1.044.402-.828.39-1.882.374-2.815-.367-.561-1.344-.727-2.02-.323z" fill="#fff"/><path d="M115.424 19.122l5.046-4.898 9.383-6.639-14.335 2.177-.094 9.36z" fill="#FF5800"/><path d="M61.118 46.556a.709.709 0 01-.28-.962c2.725-4.956 7.575-13.784 9.748-19.087-6.921.302-10.372-2.983-10.957-6.394-.539-3.147 1.7-6.466 4.89-7.245 3.05-.747 6.48.863 7.976 3.745 1.35 2.598 1.024 5.56.167 8.312 6.286-.675 9.776-1.98 39.586-11.198a.71.71 0 11.418 1.352C83.556 24.081 79.09 25.77 72.149 26.4c-2.026 5.31-8.132 16.352-10.07 19.877a.708.708 0 01-.961.28zm3.737-32.314c-2.452.6-4.241 3.232-3.83 5.631.722 4.212 5.478 5.491 10.11 5.185.923-2.67 1.33-5.431.103-7.793-1.183-2.28-3.986-3.608-6.383-3.023z" fill="#5ED4BE"/><path d="M110.822 8.346l5.008 3.153 12.749-3.578-10.133 6.205 5.492 3.267 8.284-11.164-21.4 2.117z" fill="#FCC836"/><path d="M56.678 47.353c-4.043.48-8.275 1.633-11 4.657-3.72 4.132-3.313 11.147.547 15.149 3.86 4.001 10.463 4.79 15.4 2.233 6.409-3.319 7.85-10.318 5.29-15.315-1.88-3.667-5.935-6.108-10.237-6.724z" fill="#FF3D81"/><path d="M48.81 53.875a82.034 82.034 0 004.308 10.28c.705 1.405 1.618 1.963 2.64.769a39.095 39.095 0 004.782-7.004c.74-1.388.658-2.349-1.515-3.168a95.878 95.878 0 00-7.489-2.476c-3.09-.883-3.178 1.224-2.726 1.6z" fill="#fff"/><path d="M80.72 52.156l3.963 12.711 7.178-12.262 4.187-13.01L80.72 52.156z" fill="#FF5800"/><path d="M82.216 55.672l-8.967-1.587 24.386-18.063-2.409 26.291-7.727-3.211 7.279-18.01-12.562 14.58z" fill="#FCC836"/></svg>