<svg width="146" height="145" fill="none" xmlns="http://www.w3.org/2000/svg"><g clip-path="url(#clip0_354_6220)"><path d="M53.627 72.093c-3.683-5.524-6.445-11.739-8.286-18.183-.23-.69.23-1.15.92-1.381.691-.23 1.151.23 1.382.92 1.61 6.215 4.143 12.199 7.825 17.493.46.46.23 1.15-.23 1.61-.69.231-1.381 0-1.611-.46zm37.516 1.15c-.69-.23-.92-.92-.69-1.38a172.318 172.318 0 005.293-18.644c.23-.69.69-.92 1.38-.92.691.23.921.69.921 1.38-1.61 6.445-3.452 12.66-5.523 18.874-.23.46-.921.92-1.381.69z" fill="#373737"/><path d="M42.58 52.527c2.07 2.532 6.444 1.151 6.444-1.38 0-2.302-2.992-4.374-5.064-3.913-2.302.23-2.532 3.682-1.38 5.293zm52.015-.69c2.071 2.531 6.444 1.15 6.444-1.381 0-2.302-2.992-4.373-5.063-3.913-2.302.23-2.532 3.683-1.381 5.294z" fill="#373737"/><path d="M32.453 90.274l-.46 23.936c-9.897-.921-15.882-9.436-13.12-17.492 2.072-6.675 8.746-8.976 13.58-6.444z" fill="#FC7A7A"/><path d="M32.452 90.275l-.46 23.936c-1.611-.23-3.222-.46-4.833-1.151v-5.984c.46-4.373.92-14.04 3.222-17.492.69 0 1.38.23 2.071.69z" fill="#373737"/><path d="M112.548 114.441l2.762-23.706c4.833-2.072 11.508 1.61 12.658 8.285 1.612 8.286-5.984 15.881-15.42 15.421z" fill="#FC7A7A"/><path d="M120.373 112.829c-2.301 1.151-5.063 1.611-7.825 1.611l2.762-23.706c.23 0 .46-.23.69-.23 0 .23 1.381 3.222 2.532 6.444 1.611 5.294 2.071 10.357 1.841 15.881z" fill="#373737"/><path d="M115.54 82.448v42.81c0 7.595-6.214 13.809-13.81 13.809H45.111c-7.595 0-13.81-6.214-13.81-13.809v-42.81c0-7.595 6.215-13.81 13.81-13.81 18.413-2.531 37.286-2.3 56.619 0 7.596 0 13.81 6.215 13.81 13.81z" fill="#FFC93D"/><path d="M55.928 78.536c-5.984 1.38-11.968 4.603-14.73 10.357-5.754 11.508-2.301 31.072 7.595 38.667 6.445 4.833 15.19 5.293 23.246 5.063 8.746 0 19.104-.23 26.929-4.603 7.825-4.373 12.198-13.579 11.738-22.556-.23-7.595-3.222-16.11-8.976-21.174-6.214-5.294-12.889-6.675-20.484-7.365-8.516-.69-17.032 0-25.318 1.61z" fill="#FC6060"/><path d="M55.468 108.227c5.975 0 10.818-4.843 10.818-10.818 0-5.974-4.843-10.817-10.818-10.817-5.974 0-10.817 4.843-10.817 10.817 0 5.975 4.843 10.818 10.817 10.818zm36.365.228c5.974 0 10.818-4.843 10.818-10.817 0-5.975-4.844-10.818-10.818-10.818-5.974 0-10.817 4.844-10.817 10.818 0 5.974 4.843 10.817 10.817 10.817z" fill="#fff"/><path d="M92.293 120.884c-1.38 5.984-2.301 12.199-2.762 18.413H56.85c-.23-5.524-.69-11.048-1.381-16.341-.23-1.151.69-2.072 1.611-2.072l33.373-2.071c1.15-.23 2.071.92 1.841 2.071z" fill="#D1DDF5"/><path d="M92.064 98.79c2.67 0 4.833-.722 4.833-1.612 0-.89-2.164-1.61-4.833-1.61-2.67 0-4.833.72-4.833 1.61 0 .89 2.163 1.612 4.833 1.612zm-36.596-.69c2.67 0 4.833-.618 4.833-1.381s-2.163-1.381-4.833-1.381c-2.67 0-4.833.618-4.833 1.38 0 .763 2.164 1.382 4.833 1.382z" fill="#373737"/><path d="M42.119 80.607c2.762-2.531-1.151-7.135-3.913-4.603-2.762 2.532.92 7.365 3.913 4.603zm0 52.707c2.762-2.532-1.151-7.135-3.913-4.603-2.762 2.301.92 7.134 3.913 4.603zm65.825 1.381c2.762-2.532-1.151-7.135-3.913-4.603-2.761 2.531.921 7.365 3.913 4.603zm-2.071-56.39c2.762-2.53-1.151-7.134-3.913-4.602-2.762 2.531 1.151 7.135 3.913 4.603z" fill="#fff"/><path d="M58.92 126.41a1.84 1.84 0 10.001-3.682 1.84 1.84 0 000 3.682zm30.382-2.533a1.841 1.841 0 100-3.682 1.841 1.841 0 000 3.682zm41.198-21.405c-2.302-1.151-1.381-4.373-4.833-1.381-.461.46-1.151.23-1.612-.23-.46-.46-.23-1.15.231-1.611.69-.46 1.381-1.151 2.071-1.381 1.151-.46 2.302-.46 3.222.23.691.46 1.151 1.15 1.381 1.611.23.46.461.691.691.921v-.23c0-.46.23-1.611 1.381-1.842.92-.46 1.381 0 5.754 2.072.46.23.92.92.46 1.611-.23.46-.921.92-1.611.46l-3.683-1.841c0 .46-.23.921-.46 1.381-.691.69-1.841.69-2.992.23zM12.889 98.79c-.69.69-1.611 1.38-2.532 1.841-3.222 1.151-5.984-1.381-4.373-2.762.46-.46 1.15-.23 1.611.23.46.46 1.381.46 2.072.23.46-.23.92-.23 2.531-1.841 2.302-2.072 4.373 0 3.453 2.071 0 .23-.23.46-.23.46h.46c1.15.23 2.532.23 3.452-.46.46-.23 1.151-.23 1.611.46 1.381 2.993-8.746 4.374-8.055-.23z" fill="#373737"/><path d="M75.262 61.734c-2.302-5.063-4.373-10.127-5.984-15.19l-4.143 8.746c-.46.92-1.611.92-2.072 0l-3.682-8.056s-5.064 4.604-5.294 4.834c-.46.46-1.15.46-1.61 0a1.111 1.111 0 010-1.611l5.063-4.604c1.38-1.38 2.992-.92 3.682.69l2.532 5.755 4.373-9.206c.23-.46.69-.69 1.15-.69 1.612.23.461 2.3 5.525 14.039.23-4.603.92-9.207 2.761-13.58.23-.46.69-.69 1.381-.69 1.842.46 0 2.532 2.302 9.667.46-1.611 1.15-2.992 2.071-4.604.46-.69 1.381-.92 1.842-.23.46.69 1.84 1.151 2.992.92.69-.23 1.15.231 1.38.922.461 1.84-2.991 1.84-4.833.69-2.531 5.063-1.61 6.675-2.992 6.905-.46 0-.92-.23-1.15-.69-1.151-2.302-1.842-4.604-2.302-6.905-.92 4.142-.92 8.515-1.15 12.658 0 .46-.461.92-.922 1.151-.23-.23-.69-.46-.92-.92z" fill="#FF7800"/><path d="M36.365 137.687c-2.992-2.071-5.294-5.524-6.214-9.897-1.151-4.833-.69-6.214.69-49.484 0-.69.46-1.15 1.151-1.15.69 0 1.15.46 1.15 1.15-1.38 43.5-1.84 44.421-.69 48.794.921 3.682 2.762 6.674 5.294 8.516 6.444 4.373 13.35.23 60.992 2.071.69 0 1.15.46 1.15 1.151 0 .69-.46 1.151-1.15 1.151-48.333-1.842-55.008 2.531-62.373-2.302zm104.952-32.913a3.682 3.682 0 10.002-7.364 3.682 3.682 0 00-.002 7.364zM3.683 102.011a3.683 3.683 0 10-.001-7.366 3.683 3.683 0 000 7.366zm28.77-60.071c-.69.921-2.072.921-2.532 0-2.072-3.452-9.667-16.571-11.968-20.484-.69-1.15.23-2.301 1.38-2.301 2.302-1.381 4.374-2.762 7.136-4.143.69-.46 1.61 0 2.071.69.46.69 0 1.612-.69 2.072-2.532 1.38-4.373 2.532-6.445 3.682 2.302 4.143 4.373 7.365 6.214 10.588 1.611-.921 2.992-1.842 4.373-2.532.69-.46 1.611-.23 2.072.69.46.69.23 1.611-.46 2.072-.23.23-1.612.92-4.143 2.532.92 1.61 1.84 3.222 2.531 4.373 2.072-1.381 4.143-2.532 6.675-3.913.69-.46 1.611 0 2.071.69.46.69.23 1.611-.69 2.072-.46-.23-2.532.69-7.595 3.913zm20.944-19.103c0 2.992-1.15 5.984-3.682 7.596 1.38.46 2.761.69 3.912.69.92 0 1.611.69 1.611 1.611 0 .92-.69 1.611-1.61 1.611-2.993 0-5.755-.69-8.056-2.301.23.69.46 1.61.46 2.301.23.92-.23 1.611-1.15 1.842-.921.23-1.612-.23-1.842-1.151-1.841-7.596-3.683-15.19-5.524-23.477-.46-1.84 2.532-2.992 2.992-.23 2.072-2.762 5.524-3.222 7.826-1.38 2.992 2.301 5.063 8.976 5.063 12.888zM46.492 12.48c-2.071-1.611-5.063.92-4.603 4.143.69 2.992 1.381 6.214 2.302 9.206 1.61 3.683 5.984 2.532 6.214-3.222 0-2.992-1.841-8.516-3.913-10.127zM72.5 21.686c-.69 2.762-2.531 5.524-5.293 6.445 1.15.69 2.531 1.15 3.682 1.611.92.23 1.381 1.15 1.151 1.841-.23.69-.92 1.151-1.381 1.151-.92 0-4.833-1.38-7.595-4.143v2.302c0 .92-.69 1.38-1.611 1.38s-1.611-.69-1.381-1.61c-.23-8.746-.23-15.651 0-24.167 0-1.841 3.222-2.302 2.992.46.92-.69 2.071-1.15 3.222-1.15 6.675-.46 7.825 10.127 6.214 15.88zM66.516 8.798c-1.61.23-3.222 1.61-3.452 3.912 0 3.222 0 5.984-.23 9.667.69 4.143 5.063 3.913 6.674-1.611 1.151-3.452.92-12.199-2.992-11.968zm12.199 15.65c0-2.992.23-7.134 2.071-11.047 3.913-7.826 10.817-7.595 12.889-2.532 2.302 5.524-1.611 16.111-3.683 19.333-3.912 6.445-11.047 5.524-11.277-5.754zm8.976 4.143c2.071-3.222 5.063-12.428 3.452-16.341-1.15-2.762-4.833-2.302-7.365 2.532-1.611 3.222-1.841 6.904-1.841 9.666 0 6.445 2.532 9.207 5.754 4.143zm26.238-2.301c-1.151 2.992-2.532 5.524-4.373 7.135-2.072 2.071-4.833 3.682-7.826 2.992.691 1.15 1.612 2.301 2.532 2.992.691.69.691 1.61 0 2.071-.69.69-1.611.69-2.071 0-2.072-2.071-3.683-4.373-4.373-7.135-.46.69-.69 1.381-1.151 2.072-.46.69-1.381.92-2.072.69-.69-.46-.92-1.38-.46-2.071 3.913-6.905 7.595-13.81 11.738-20.945.461-.69 1.381-.92 2.072-.46.69.46.92 1.38.46 2.071 0 0 0 .23-.23.23 1.151-.23 2.301 0 3.222.46 4.143 1.842 4.143 5.985 2.532 9.898zm-2.762-1.151c.69-2.302 1.381-4.833-.691-5.754-1.38-.69-3.682 0-4.833 1.841-1.611 2.992-3.222 5.524-4.603 8.286-1.381 3.913 2.762 5.984 6.675 1.841 1.381-1.61 2.531-3.682 3.452-6.214z" fill="#373737"/></g><defs><clipPath id="clip0_354_6220"><path fill="#fff" transform="translate(.5)" d="M0 0h145v145H0z"/></clipPath></defs></svg>