<svg width="64" height="64" fill="none" xmlns="http://www.w3.org/2000/svg"><g clip-path="url(#clip0_86_406)"><path d="M52 64H12A12 12 0 010 52V12A12 12 0 0112 0h40a12 12 0 0112 12v40a12 12 0 01-12 12z" fill="#FFE6E2"/><path d="M41 21l-3.52-6.348a1.281 1.281 0 00-.324-.387 1.21 1.21 0 00-.441-.225 1.173 1.173 0 00-.95.15L25 20.985 41 21z" fill="#FD907E"/><path d="M17.909 22.477c-.9 0-1.637-.729-1.637-1.62 0-.891.736-1.62 1.637-1.62h5.515L28.89 16H17.91a4.89 4.89 0 00-4.828 4.048c-.032.129-.081.26-.081.406v24.69C13 47.813 15.209 50 17.909 50h27.817c1.799 0 3.272-1.457 3.272-3.237v-3.237h-4.09c-4.057 0-7.363-3.271-7.363-7.285s3.306-7.285 7.363-7.285H49v-3.238c0-1.78-1.473-3.237-3.272-3.237H17.91v-.005zm26.182-3.238c0-1.634-1.227-2.994-2.83-3.205l2.83 4.825v-1.62z" fill="#FC573B"/><path d="M50.8 31h-6c-2.647 0-4.8 2.242-4.8 5s2.153 5 4.8 5h6c.318 0 .623-.132.849-.366.225-.234.351-.553.351-.884v-7.5c0-.331-.126-.65-.352-.884A1.176 1.176 0 0050.8 31zm-6 6.665c-.21 0-.419-.044-.613-.127a1.6 1.6 0 01-.52-.363 1.674 1.674 0 01-.346-.541 1.728 1.728 0 01.348-1.819c.15-.154.326-.277.52-.361a1.547 1.547 0 011.746.363c.3.313.468.738.468 1.18 0 .443-.17.867-.47 1.18a1.57 1.57 0 01-1.133.488z" fill="#FD907E"/></g><defs><clipPath id="clip0_86_406"><path fill="#fff" d="M0 0h64v64H0z"/></clipPath></defs></svg>