<svg width="64" height="64" fill="none" xmlns="http://www.w3.org/2000/svg"><g clip-path="url(#clip0_86_503)"><path d="M52 64H12A12 12 0 010 52V12A12 12 0 0112 0h40a12 12 0 0112 12v40a12 12 0 01-12 12z" fill="#E3F8FA"/><path d="M32.5 12C25.608 12 20 17.608 20 24.5S25.608 37 32.5 37 45 31.392 45 24.5 39.392 12 32.5 12zm-.633 11.25h1.268a3.537 3.537 0 01.615 7.02v1.313a1.25 1.25 0 01-2.5 0v-1.25h-1.668a1.25 1.25 0 010-2.5h3.55a1.041 1.041 0 100-2.083h-1.267a3.537 3.537 0 01-.615-7.02v-1.313a1.25 1.25 0 012.5 0v1.25h1.667a1.25 1.25 0 010 2.5h-3.55a1.036 1.036 0 00-1.032 1.033 1.036 1.036 0 001.032 1.05z" fill="#8CE1EB"/><path d="M52 37.324v-.094c0-.044-.023-.08-.025-.123-.12-2.469-2.333-4.6-6.32-6.107-2.358 5.118-7.585 8.692-13.655 8.692A15.021 15.021 0 0118.345 31C14.243 32.548 12 34.756 12 37.316v6.418c0 .086.037.162.05.246C12.577 49.243 22.332 52 32 52c9.59 0 19.265-2.713 19.935-7.892.023-.106.065-.202.065-.313v-6.471zm-3.333 6.22c-.007 2.112-6.5 5.175-16.667 5.175-10.175 0-16.668-3.068-16.668-5.18V42.19C19.108 44.554 25.57 45.778 32 45.778c6.428 0 12.892-1.223 16.667-3.584v1.351z" fill="#26C6DA"/></g><defs><clipPath id="clip0_86_503"><path fill="#fff" d="M0 0h64v64H0z"/></clipPath></defs></svg>