<svg width="64" height="64" fill="none" xmlns="http://www.w3.org/2000/svg"><g clip-path="url(#clip0_86_493)"><path d="M52 64H12A12 12 0 010 52V12A12 12 0 0112 0h40a12 12 0 0112 12v40a12 12 0 01-12 12z" fill="#F5E6FE"/><path d="M36 28.191a3.395 3.395 0 00-3.39-3.391h-1.217a.995.995 0 01-.991-1.008c0-.548.446-.992.99-.992H34.8a1.2 1.2 0 000-2.4h-1.6v-1.2a1.2 1.2 0 10-2.4 0v1.26a3.398 3.398 0 00.59 6.74h1.217c.547 0 .991.447.991 1.008a.994.994 0 01-.99.992H29.2a1.2 1.2 0 000 2.4h1.6v1.2a1.2 1.2 0 102.4 0v-1.26a3.398 3.398 0 002.8-3.35z" fill="#D9A4FC"/><path d="M19.556 37a1.54 1.54 0 01-1.1-.465A1.603 1.603 0 0118 35.413V18.76c0-2.626 2.093-4.76 4.667-4.76h18.666C43.907 14 46 16.134 46 18.759v16.654c0 .42-.164.825-.456 1.122a1.541 1.541 0 01-1.1.465c-.413 0-.809-.167-1.1-.465a1.603 1.603 0 01-.457-1.122V18.76a1.614 1.614 0 00-.456-1.123 1.556 1.556 0 00-1.1-.464H22.664c-.412 0-.808.167-1.1.464a1.603 1.603 0 00-.456 1.123v16.654a1.61 1.61 0 01-.453 1.122 1.55 1.55 0 01-1.099.465z" fill="#BE63F9"/><path d="M51 28.243a4.716 4.716 0 00-2.475-4.15L44.668 22v3.59l2.342 1.27a1.579 1.579 0 01.824 1.383v1.968L32.93 37.956a2.051 2.051 0 01-1.85.003l-14.91-7.748v-1.968c0-.577.315-1.106.826-1.383l2.341-1.27V22l-3.856 2.093a4.735 4.735 0 00-1.814 1.736A4.702 4.702 0 0013 28.243v17.031C13 47.88 15.13 50 17.75 50h28.5c2.62 0 4.75-2.12 4.75-4.726V28.243z" fill="#BE63F9"/></g><defs><clipPath id="clip0_86_493"><path fill="#fff" d="M0 0h64v64H0z"/></clipPath></defs></svg>