<svg width="64" height="64" fill="none" xmlns="http://www.w3.org/2000/svg"><g clip-path="url(#clip0_86_473)"><path d="M12 0h40a12 12 0 0112 12v40a12 12 0 01-12 12H12A12 12 0 010 52V12A12 12 0 0112 0z" fill="#FFF9DD"/><path d="M32 38c3.314 0 6-2.91 6-6.5S35.314 25 32 25s-6 2.91-6 6.5 2.686 6.5 6 6.5z" fill="#FFE777"/><path d="M49.25 16h-34.5C11.579 16 9 18.607 9 21.812v19.376C9 44.393 11.579 47 14.75 47h34.5c3.171 0 5.75-2.607 5.75-5.812V21.812C55 18.607 52.421 16 49.25 16zM24.997 43.123l-12.162-9.66v-3.929l12.162-9.66h14.01l12.16 9.66v3.93l-12.163 9.66H24.997zm26.17-21.31v2.795l-5.96-4.734h4.043a1.93 1.93 0 011.918 1.938zm-36.417-1.94h4.042l-5.96 4.735v-2.796c0-1.07.86-1.938 1.918-1.938zm-1.918 21.312v-2.796l5.96 4.734H14.75c-.509 0-.996-.204-1.356-.568a1.949 1.949 0 01-.562-1.37zm36.418 1.938h-4.042l5.96-4.734v2.796c0 .514-.202 1.007-.562 1.37-.36.364-.847.568-1.356.568z" fill="#FFD200"/><path d="M20.277 32.893H18.39a1.889 1.889 0 110-3.778h1.889a1.889 1.889 0 110 3.778zm24.543 0h-1.889a1.889 1.889 0 110-3.778h1.89a1.889 1.889 0 110 3.778z" fill="#FFE777"/></g><defs><clipPath id="clip0_86_473"><path fill="#fff" d="M0 0h64v64H0z"/></clipPath></defs></svg>